<svg xmlns="http://www.w3.org/2000/svg" width="60" height="60" viewBox="0 0 60 60">
    <g fill="#3B3652" fill-rule="evenodd">
        <path fill-rule="nonzero" d="M30 60c16.569 0 30-13.431 30-30C60 13.431 46.569 0 30 0 13.431 0 0 13.431 0 30c0 16.569 13.431 30 30 30zm0-2C14.536 58 2 45.464 2 30S14.536 2 30 2s28 12.536 28 28-12.536 28-28 28z"/>
        <path d="M30.249 28.246l8.289-8.29 1.414 1.415-8.289 8.289 8.352 8.352-1.414 1.414-8.352-8.352-8.29 8.29-1.414-1.415 8.29-8.29-8.227-8.225 1.414-1.415 8.227 8.227z"/>
    </g>
</svg>
